<svg version="1.1" xmlns="http://www.w3.org/2000/svg" width="300" height="300" xmlns:xlink="http://www.w3.org/1999/xlink" transform="matrix(-1,1.2246467991473532e-16,-1.2246467991473532e-16,-1,0,0)">
  <!-- Background Circle -->
  <circle cx="150" cy="150" r="140" fill="#CD3301"></circle>

  <!-- Scaled-up white complex shape -->
  <path d="M0 0 C1.60488281 0.03383789 1.60488281 0.03383789 3.2421875 0.06835938 C5.87124407 0.12704367 8.49738582 0.2090882 11.125 0.3125 C11.125 2.2925 11.125 4.2725 11.125 6.3125 C0.73 6.8075 0.73 6.8075 -9.875 7.3125 C-10.205 8.9625 -10.535 10.6125 -10.875 12.3125 C-9.64523438 12.33828125 -8.41546875 12.3640625 -7.1484375 12.390625 C-5.51559068 12.44693006 -3.88277955 12.50427685 -2.25 12.5625 C-1.44175781 12.57667969 -0.63351563 12.59085938 0.19921875 12.60546875 C5.73508568 12.83050399 8.85253629 13.72740427 13.125 17.3125 C14.67524464 20.41298928 14.41492015 22.89144218 14.125 26.3125 C12.32937595 29.06579021 11.07245078 30.83877461 8.125 32.3125 C6.1656396 32.39760205 4.20337206 32.41967656 2.2421875 32.41015625 C1.07558594 32.40693359 -0.09101562 32.40371094 -1.29296875 32.40039062 C-2.51628906 32.39201172 -3.73960938 32.38363281 -5 32.375 C-6.23105469 32.37048828 -7.46210937 32.36597656 -8.73046875 32.36132812 C-11.77869392 32.3495133 -14.82682314 32.33304028 -17.875 32.3125 C-17.875 30.3325 -17.875 28.3525 -17.875 26.3125 C-9.955 25.9825 -2.035 25.6525 6.125 25.3125 C6.125 23.6625 6.125 22.0125 6.125 20.3125 C4.81144531 20.29832031 3.49789062 20.28414062 2.14453125 20.26953125 C0.40881949 20.22262012 -1.32685652 20.17437279 -3.0625 20.125 C-3.92681641 20.11919922 -4.79113281 20.11339844 -5.68164062 20.10742188 C-10.11859832 19.95442333 -12.28820196 19.74625275 -15.9453125 17.04296875 C-17.87239684 14.31618342 -18.57984102 13.09573364 -18.5625 9.8125 C-18.58699219 9.0803125 -18.61148438 8.348125 -18.63671875 7.59375 C-17.69672769 4.7785973 -16.28022712 3.09296042 -13.93188477 1.28955078 C-9.57205343 -0.78143379 -4.71658225 -0.18877946 0 0 Z" fill="#FCF5F3" transform="translate(110, 130) scale(2)"></path>

  <!-- Scaled-up additional shape -->
  <path d="M0 0 C1.98 0 3.96 0 6 0 C6 4.29 6 8.58 6 13 C12.6 13 19.2 13 26 13 C26 8.71 26 4.42 26 0 C27.98 0 29.96 0 32 0 C32 10.56 32 21.12 32 32 C30.02 32 28.04 32 26 32 C26 27.71 26 23.42 26 19 C19.4 19 12.8 19 6 19 C6 23.29 6 27.58 6 32 C4.02 32 2.04 32 0 32 C0 21.44 0 10.88 0 0 Z" fill="#FDF7F5" transform="translate(150, 130) scale(2)"></path>
</svg>